# xmcd CD database file
#
# Track frame offsets:
#	150
#	20595
#	44650
#	65117
#
# Disc length: 1187 seconds
#
# Revision: 2
# Processed by: cddbd v1.5.1PL0 Copyright (c) Steve Scherf et al.
# Submitted via: CDex 1.51
#
DISCID=3804a104
DTITLE=南楓（中原麻衣） - わがまま☆フェアリー ミルモでポン！ ちゃあみんぐ キャラクターソングシリーズ Vol.1 南楓
DYEAR=2005
DGENRE=Anime
TTITLE0=WITH
TTITLE1=シアワセの種
TTITLE2=WITH (off vocal version)
TTITLE3=シアワセの種 (off vocal version)
EXTD=YEAR: 2005
EXTT0=
EXTT1=
EXTT2=
EXTT3=
PLAYORDER=
